<?xml version="1.0" encoding="UTF-8" standalone="no"?>
<!-- Created with Inkscape (http://www.inkscape.org/) -->

<svg
   xmlns:dc="http://purl.org/dc/elements/1.1/"
   xmlns:cc="http://creativecommons.org/ns#"
   xmlns:rdf="http://www.w3.org/1999/02/22-rdf-syntax-ns#"
   xmlns:svg="http://www.w3.org/2000/svg"
   xmlns="http://www.w3.org/2000/svg"
   xmlns:sodipodi="http://sodipodi.sourceforge.net/DTD/sodipodi-0.dtd"
   xmlns:inkscape="http://www.inkscape.org/namespaces/inkscape"
   width="210mm"
   height="297mm"
   viewBox="0 0 744.09448819 1052.3622047"
   id="svg2"
   version="1.1"
   inkscape:version="0.91 r13725"
   sodipodi:docname="disegno.svg">
  <defs
     id="defs4" />
  <sodipodi:namedview
     id="base"
     pagecolor="#ffffff"
     bordercolor="#666666"
     borderopacity="1.0"
     inkscape:pageopacity="0.0"
     inkscape:pageshadow="2"
     inkscape:zoom="0.70710678"
     inkscape:cx="487.46228"
     inkscape:cy="702.60775"
     inkscape:document-units="px"
     inkscape:current-layer="layer1"
     showgrid="false"
     showguides="true"
     inkscape:window-width="1280"
     inkscape:window-height="746"
     inkscape:window-x="0"
     inkscape:window-y="25"
     inkscape:window-maximized="1" />
  <metadata
     id="metadata7">
    <rdf:RDF>
      <cc:Work
         rdf:about="">
        <dc:format>image/svg+xml</dc:format>
        <dc:type
           rdf:resource="http://purl.org/dc/dcmitype/StillImage" />
        <dc:title></dc:title>
      </cc:Work>
    </rdf:RDF>
  </metadata>
  <g
     inkscape:groupmode="layer"
     id="layer2"
     inkscape:label="Livello 2" />
  <g
     inkscape:label="Livello 1"
     inkscape:groupmode="layer"
     id="layer1">
    <g
       id="g4295"
       transform="translate(-14.142136,-29.698485)">
      <path
         id="rect3363"
         d="m 137.20898,43.242188 0,36.226562 c 0.036,-0.116809 0.43946,-1.220703 0.43946,-1.220703 l 69.46875,0 0,313.931643 -69.90821,0 0,127.7832 555.28907,0 0,-476.720702 -555.28907,0 z m 202.41797,29.728515 c 94.5314,0 97.16797,57.158207 97.16797,162.681637 0,109.48055 -2.63657,161.80274 -97.16797,161.80274 -94.53141,0 -97.16992,-52.32219 -97.16992,-161.80274 0,-105.52343 2.63851,-162.681637 97.16992,-162.681637 z m 220.69922,0 c 94.5314,0 97.16797,57.158207 97.16797,162.681637 0,109.48055 -2.63657,161.80274 -97.16797,161.80274 -94.5314,0 -97.16992,-52.32219 -97.16992,-161.80274 0,-105.52343 2.63852,-162.681637 97.16992,-162.681637 z M 339.62695,134.08594 c -17.58724,0 -20.22656,25.06191 -20.22656,101.5664 0,78.2632 2.63932,100.6875 20.22656,100.6875 17.58723,0 20.22461,-22.4243 20.22461,-100.6875 0,-76.50449 -2.63738,-101.5664 -20.22461,-101.5664 z m 220.69922,0 c -17.58724,0 -20.22656,25.06191 -20.22656,101.5664 0,78.2632 2.63932,100.6875 20.22656,100.6875 17.58724,0 20.22461,-22.4243 20.22461,-100.6875 0,-76.50449 -2.63737,-101.5664 -20.22461,-101.5664 z m -272.94531,280.87304 22.76758,0 12.52734,36.66602 12.39453,-36.66602 22.76563,0 0,70 -21.41797,0 0,-31.56836 -7.00586,31.56836 -13.33594,0 -7.27539,-31.56836 0,31.56836 -21.41992,0 0,-70 z m 100.22461,0 21.41992,0 21.55469,70 -21.41992,0 -2.42383,-10.68554 -16.83985,0 -2.42578,10.68554 -21.41797,0 21.55274,-70 z m 51.06445,0 25.46094,0 c 26.94827,0 32.43153,7.84745 32.58594,35 0.002,-0.40152 0.0156,-0.76576 0.0156,-1.17578 l 0,2.35157 c 0,-0.41002 -0.0133,-0.77427 -0.0156,-1.17579 -0.15441,27.15256 -5.63767,35 -32.58594,35 l -25.46094,0 0,-70 z m 66.04102,0 21.41992,0 c 25.19135,0 33.94728,6.66717 33.94726,21.37305 0,8.03922 -2.01999,13.92092 -8.21679,16.66602 11.3159,6.37255 7.27453,23.92171 10.10351,31.96093 l -21.41992,0 c -1.88597,-6.86275 1.7526,-20.29461 -6.59961,-26.37304 l -7.81445,0 0,26.37304 -21.41992,0 0,-70 z m 65.25195,0 21.41992,0 0,70 -21.41992,0 0,-70 z m 29.46875,0 25.46094,0 c 26.94825,0 32.43153,7.84745 32.58594,35 0.002,-0.40152 0.0156,-0.76576 0.0156,-1.17578 l 0,2.35157 c 0,-0.41002 -0.0133,-0.77427 -0.0156,-1.17579 -0.15441,27.15256 -5.63769,35 -32.58594,35 l -25.46094,0 0,-70 z m -139.3418,12.64649 0,44.70703 c 12.82782,0 15.13444,-0.8079 15.21485,-22.35352 -0.0804,-21.54562 -2.38703,-22.35351 -15.21485,-22.35351 z m 66.04102,0 0,20.58984 c 10.37291,0 12.5293,-1.96154 12.5293,-9.80469 0,-7.84314 -2.15639,-10.78515 -12.5293,-10.78515 z m 94.7207,0 0,44.70703 c 12.82781,0 15.13444,-0.8079 15.21485,-22.35352 -0.0804,-21.54562 -2.38704,-22.35351 -15.21485,-22.35351 z m -222.60351,9.41211 -5.52344,24.60742 11.04687,0 -5.52343,-24.60742 z"
         style="opacity:1;fill:#f44336;fill-opacity:1;stroke:none;stroke-width:12.81700039;stroke-miterlimit:4;stroke-dasharray:none;stroke-opacity:1"
         inkscape:connector-curvature="0" />
      <path
         sodipodi:nodetypes="ccccc"
         inkscape:connector-curvature="0"
         id="path3358"
         d="m 137.20898,211.4707 0,-132.00195 c 0,35.85193 -19.66194,62.0918 -57.160152,62.0918 l 0,69.91015 z"
         style="font-style:normal;font-variant:normal;font-weight:normal;font-stretch:normal;font-size:medium;line-height:125%;font-family:muro;-inkscape-font-specification:muro;letter-spacing:0px;word-spacing:0px;fill:#f44336;fill-opacity:1;stroke:none;stroke-width:1px;stroke-linecap:butt;stroke-linejoin:miter;stroke-opacity:1" />
    </g>
  </g>
  <g
     inkscape:groupmode="layer"
     id="layer3"
     inkscape:label="Livello 3" />
</svg>
